<svg width="1032" height="520" viewBox="0 0 1032 520" fill="none" xmlns="http://www.w3.org/2000/svg">
    <g filter="url(#filter0_d_56_7)">
        <rect width="1024" height="512" transform="translate(4)" fill="url(#paint0_linear_56_7)"/>
        <g filter="url(#filter1_d_56_7)">
            <path d="M470.398 182.506C467.34 170.484 463.885 163.554 455.398 154.506C449.574 148.297 446.075 143.877 437.898 141.506C435.283 140.748 432.164 140.655 429.068 140.9L425.899 144.006C416.135 153.574 416.298 162.549 414.399 175.506C412.208 190.444 414.271 199.351 417.899 214.006C423.501 236.641 433.214 247.125 445.399 267.006C468.976 305.479 515.823 351.489 534.471 369.128C540.357 374.526 540.843 377.54 532.899 382.883L515.399 394.63C507.836 399.733 504.037 399.375 497.96 393.618C479.304 375.97 432.471 329.971 408.899 291.506C396.714 271.625 387.001 261.141 381.399 238.506C377.771 223.851 375.708 214.944 377.899 200.006C379.798 187.049 382.355 179.546 389.399 168.506C396.751 156.982 414.398 144.006 414.398 144.006L450.898 119.506C459.023 115.129 465.534 114.436 474.398 117.006C482.575 119.377 486.074 123.797 491.898 130.006C500.385 139.054 505.211 152.719 506.898 158.006C510.131 168.281 508.194 172.487 499.959 178.006L483.571 189.006C475.307 194.579 472.818 192.128 470.398 182.506Z" fill="url(#paint1_linear_56_7)"/>
            <path d="M585.899 329.506L549.399 354.006L571.399 326.006C571.399 326.006 586.216 307.526 593.899 294.506C602.333 280.212 606.828 271.81 611.899 256.006C616.52 241.603 619.987 233.121 619.399 218.006C618.907 205.37 616.242 198.382 611.899 186.506C607.699 175.025 604.288 168.929 597.899 158.506C595.117 153.969 591.212 148.576 587.75 144.006C582.009 136.548 581.725 132.723 590.327 127.006L604.48 117.506C613.236 111.528 617.639 110.985 623.871 119.006C627.424 123.678 631.515 129.302 634.399 134.006C640.788 144.429 644.199 150.525 648.399 162.006C652.742 173.882 655.407 180.871 655.899 193.506C656.487 208.621 653.02 217.103 648.399 231.506C643.328 247.31 638.833 255.712 630.399 270.006C622.716 283.026 607.899 301.506 607.899 301.506L585.899 329.506Z" fill="url(#paint2_linear_56_7)"/>
        </g>
        <g filter="url(#filter2_d_56_7)">
            <path d="M674.111 382.611C672.642 382.573 671.244 381.973 670.205 380.934C669.166 379.895 668.565 378.497 668.528 377.028C668.528 375.547 669.116 374.127 670.163 373.08C671.21 372.033 672.63 371.444 674.111 371.444C675.592 371.444 677.012 372.033 678.059 373.08C679.106 374.127 679.694 375.547 679.694 377.028C679.657 378.497 679.056 379.895 678.017 380.934C676.978 381.973 675.58 382.573 674.111 382.611ZM668.528 364C663.113 364.049 657.934 366.221 654.105 370.05C650.277 373.879 648.104 379.058 648.056 384.472C648.169 388.093 649.058 391.646 650.661 394.894L622 423.556V431H636.889V423.556H644.333V416.111H651.778L663.689 404.2C665.269 404.629 666.892 404.879 668.528 404.944C673.942 404.896 679.121 402.723 682.95 398.895C686.779 395.066 688.951 389.887 689 384.472C688.951 379.058 686.779 373.879 682.95 370.05C679.121 366.221 673.942 364.049 668.528 364Z" fill="url(#paint3_linear_56_7)"/>
        </g>
    </g>
    <defs>
        <filter id="filter0_d_56_7" x="0" y="0" width="1032" height="520" filterUnits="userSpaceOnUse" color-interpolation-filters="sRGB">
            <feFlood flood-opacity="0" result="BackgroundImageFix"/>
            <feColorMatrix in="SourceAlpha" type="matrix" values="0 0 0 0 0 0 0 0 0 0 0 0 0 0 0 0 0 0 127 0" result="hardAlpha"/>
            <feOffset dy="4"/>
            <feGaussianBlur stdDeviation="2"/>
            <feComposite in2="hardAlpha" operator="out"/>
            <feColorMatrix type="matrix" values="0 0 0 0 0 0 0 0 0 0 0 0 0 0 0 0 0 0 0.25 0"/>
            <feBlend mode="normal" in2="BackgroundImageFix" result="effect1_dropShadow_56_7"/>
            <feBlend mode="normal" in="SourceGraphic" in2="effect1_dropShadow_56_7" result="shape"/>
        </filter>
        <filter id="filter1_d_56_7" x="373" y="113" width="286.964" height="293.212" filterUnits="userSpaceOnUse" color-interpolation-filters="sRGB">
            <feFlood flood-opacity="0" result="BackgroundImageFix"/>
            <feColorMatrix in="SourceAlpha" type="matrix" values="0 0 0 0 0 0 0 0 0 0 0 0 0 0 0 0 0 0 127 0" result="hardAlpha"/>
            <feOffset dy="4"/>
            <feGaussianBlur stdDeviation="2"/>
            <feComposite in2="hardAlpha" operator="out"/>
            <feColorMatrix type="matrix" values="0 0 0 0 0 0 0 0 0 0 0 0 0 0 0 0 0 0 0.25 0"/>
            <feBlend mode="normal" in2="BackgroundImageFix" result="effect1_dropShadow_56_7"/>
            <feBlend mode="normal" in="SourceGraphic" in2="effect1_dropShadow_56_7" result="shape"/>
        </filter>
        <filter id="filter2_d_56_7" x="618" y="364" width="75" height="75" filterUnits="userSpaceOnUse" color-interpolation-filters="sRGB">
            <feFlood flood-opacity="0" result="BackgroundImageFix"/>
            <feColorMatrix in="SourceAlpha" type="matrix" values="0 0 0 0 0 0 0 0 0 0 0 0 0 0 0 0 0 0 127 0" result="hardAlpha"/>
            <feOffset dy="4"/>
            <feGaussianBlur stdDeviation="2"/>
            <feComposite in2="hardAlpha" operator="out"/>
            <feColorMatrix type="matrix" values="0 0 0 0 0 0 0 0 0 0 0 0 0 0 0 0 0 0 0.25 0"/>
            <feBlend mode="normal" in2="BackgroundImageFix" result="effect1_dropShadow_56_7"/>
            <feBlend mode="normal" in="SourceGraphic" in2="effect1_dropShadow_56_7" result="shape"/>
        </filter>
        <linearGradient id="paint0_linear_56_7" x1="0" y1="512" x2="409.6" y2="-307.2" gradientUnits="userSpaceOnUse">
            <stop stop-color="#111111"/>
            <stop offset="1" stop-color="#331133"/>
        </linearGradient>
        <linearGradient id="paint1_linear_56_7" x1="516.482" y1="113" x2="516.482" y2="398.212" gradientUnits="userSpaceOnUse">
            <stop stop-color="#AA2222"/>
            <stop offset="1" stop-color="#D9DD11"/>
        </linearGradient>
        <linearGradient id="paint2_linear_56_7" x1="516.482" y1="113" x2="516.482" y2="398.212" gradientUnits="userSpaceOnUse">
            <stop stop-color="#AA2222"/>
            <stop offset="1" stop-color="#D9DD11"/>
        </linearGradient>
        <linearGradient id="paint3_linear_56_7" x1="655.5" y1="364" x2="655.5" y2="431" gradientUnits="userSpaceOnUse">
            <stop stop-color="#22AA58"/>
            <stop offset="1" stop-color="#11B8DD"/>
        </linearGradient>
    </defs>
</svg>
